<svg width="1200" height="1200" viewBox="0 0 1200 1200" fill="none" xmlns="http://www.w3.org/2000/svg">
<g clip-path="url(#clip0_629_2)">
<path d="M1197 0H3C1.34315 0 0 1.34315 0 3V1197C0 1198.66 1.34315 1200 3 1200H1197C1198.66 1200 1200 1198.66 1200 1197V3C1200 1.34315 1198.66 0 1197 0Z" fill="#EAEAEA"/>
<path d="M690.373 291.009L600.299 239.004L510.224 187V291.009V395.018L600.299 343.013L690.373 291.009Z" fill="url(#paint0_radial_629_2)"/>
<path d="M331 291.009L421.074 239.004L511.149 187V291.009V395.018L421.074 343.013L331 291.009Z" fill="url(#paint1_linear_629_2)"/>
<path d="M510.224 394.093L600.298 446.097L690.373 498.102V394.093V290.084L600.298 342.088L510.224 394.093Z" fill="url(#paint2_radial_629_2)"/>
<path d="M869.597 394.093L779.522 446.097L689.448 498.102V394.093V290.084L779.522 342.088L869.597 394.093Z" fill="url(#paint3_radial_629_2)"/>
<path d="M869.597 600.261L779.522 548.257L689.448 496.252V600.261V704.27L779.522 652.266L869.597 600.261Z" fill="url(#paint4_linear_629_2)"/>
<path d="M869.597 806.43L779.522 858.434L689.448 910.438V806.43V702.421L779.522 754.425L869.597 806.43Z" fill="url(#paint5_linear_629_2)"/>
<path d="M689.448 497.177L779.522 549.181L869.597 601.186V497.177V393.168L779.522 445.173L689.448 497.177Z" fill="url(#paint6_linear_629_2)"/>
<path d="M690.373 909.514L600.299 961.518L510.224 1013.52V909.514V805.505L600.299 857.509L690.373 909.514Z" fill="url(#paint7_linear_629_2)"/>
<path d="M510.224 806.43L600.298 858.434L690.373 910.438V806.43V702.421L600.298 754.425L510.224 806.43Z" fill="url(#paint8_linear_629_2)"/>
<path d="M331 909.514L421.074 961.518L511.149 1013.52V909.514V805.505L421.074 857.509L331 909.514Z" fill="url(#paint9_linear_629_2)"/>
<path d="M511.149 806.43L421.074 858.434L331 910.438V806.43V702.421L421.074 754.425L511.149 806.43Z" fill="url(#paint10_linear_629_2)"/>
<path d="M511.149 600.261L421.074 652.266L331 704.27V600.261V496.252L421.074 548.257L511.149 600.261Z" fill="url(#paint11_linear_629_2)"/>
<path d="M331 497.177L421.074 549.181L511.149 601.186V497.177V393.168L421.074 445.173L331 497.177Z" fill="url(#paint12_radial_629_2)"/>
<path d="M689.448 703.345L779.522 651.341L869.597 599.336V703.345V807.354L779.522 755.349L689.448 703.345Z" fill="url(#paint13_linear_629_2)"/>
</g>
<defs>
<radialGradient id="paint0_radial_629_2" cx="0" cy="0" r="1" gradientUnits="userSpaceOnUse" gradientTransform="translate(599.398 289.969) scale(180.149 208.018)">
<stop stop-color="#0083C2"/>
<stop offset="1" stop-color="#002963"/>
</radialGradient>
<linearGradient id="paint1_linear_629_2" x1="-891.627" y1="869.975" x2="-1099.61" y2="866.345" gradientUnits="userSpaceOnUse">
<stop stop-color="#002963"/>
<stop offset="1" stop-color="#00509E"/>
</linearGradient>
<radialGradient id="paint2_radial_629_2" cx="0" cy="0" r="1" gradientUnits="userSpaceOnUse" gradientTransform="translate(553.46 340.008) scale(180.149 208.018)">
<stop stop-color="#0083C2"/>
<stop offset="1" stop-color="#002963"/>
</radialGradient>
<radialGradient id="paint3_radial_629_2" cx="0" cy="0" r="1" gradientUnits="userSpaceOnUse" gradientTransform="translate(821.857 442.977) scale(180.149 208.018)">
<stop stop-color="#3A8EC8"/>
<stop offset="1" stop-color="#17346D"/>
</radialGradient>
<linearGradient id="paint4_linear_629_2" x1="689.448" y1="496.252" x2="869.597" y2="496.252" gradientUnits="userSpaceOnUse">
<stop stop-color="#316CB0"/>
<stop offset="1" stop-color="#DBE1F1"/>
</linearGradient>
<linearGradient id="paint5_linear_629_2" x1="689.448" y1="702.421" x2="869.597" y2="702.421" gradientUnits="userSpaceOnUse">
<stop stop-color="#E30016"/>
<stop offset="1" stop-color="#FDE2D7"/>
</linearGradient>
<linearGradient id="paint6_linear_629_2" x1="689.448" y1="393.168" x2="869.597" y2="393.168" gradientUnits="userSpaceOnUse">
<stop stop-color="#00509E"/>
<stop offset="1" stop-color="#D2D9ED"/>
</linearGradient>
<linearGradient id="paint7_linear_629_2" x1="-1513.17" y1="1038.38" x2="-1721.15" y2="1034.75" gradientUnits="userSpaceOnUse">
<stop stop-color="#96281B"/>
<stop offset="1" stop-color="#E63126"/>
</linearGradient>
<linearGradient id="paint8_linear_629_2" x1="510.224" y1="702.421" x2="690.373" y2="702.421" gradientUnits="userSpaceOnUse">
<stop stop-color="#E94E36"/>
<stop offset="1" stop-color="#FDE8DF"/>
</linearGradient>
<linearGradient id="paint9_linear_629_2" x1="-1510.04" y1="859.181" x2="-1718.02" y2="855.551" gradientUnits="userSpaceOnUse">
<stop stop-color="#8B1210"/>
<stop offset="1" stop-color="#E30016"/>
</linearGradient>
<linearGradient id="paint10_linear_629_2" x1="331" y1="702.421" x2="511.149" y2="702.421" gradientUnits="userSpaceOnUse">
<stop stop-color="#E30016"/>
<stop offset="1" stop-color="#FDE2D7"/>
</linearGradient>
<linearGradient id="paint11_linear_629_2" x1="-1200.83" y1="864.579" x2="-1408.82" y2="860.948" gradientUnits="userSpaceOnUse">
<stop stop-color="#D1D2D4"/>
<stop offset="1" stop-color="#F5F6F6"/>
</linearGradient>
<radialGradient id="paint12_radial_629_2" cx="0" cy="0" r="1" gradientUnits="userSpaceOnUse" gradientTransform="translate(420.174 496.137) scale(180.149 208.017)">
<stop stop-color="#0083C2"/>
<stop offset="1" stop-color="#002963"/>
</radialGradient>
<linearGradient id="paint13_linear_629_2" x1="-1310.16" y1="1221.17" x2="-1518.14" y2="1217.54" gradientUnits="userSpaceOnUse">
<stop stop-color="#96281B"/>
<stop offset="1" stop-color="#E63126"/>
</linearGradient>
<clipPath id="clip0_629_2">
<rect width="1200" height="1200" fill="white"/>
</clipPath>
</defs>
</svg>
