<svg width="1200" height="1200" viewBox="0 0 1200 1200" fill="none" xmlns="http://www.w3.org/2000/svg">
<g clip-path="url(#clip0_629_2)">
<path d="M1197 0H3C1.34315 0 0 1.34315 0 3V1197C0 1198.66 1.34315 1200 3 1200H1197C1198.66 1200 1200 1198.66 1200 1197V3C1200 1.34315 1198.66 0 1197 0Z" fill="#EAEAEA"/>
<g clip-path="url(#clip1_629_2)">
<path fill-rule="evenodd" clip-rule="evenodd" d="M268.482 479.075L148 599.499L268.482 719.924L305.322 683.101L342.163 719.924L462.645 599.499L342.163 479.075L305.322 515.898L268.482 479.075ZM170.794 599.499L268.482 501.858L293.925 527.289L221.681 599.499L293.925 671.71L268.482 697.141L170.794 599.499ZM244.475 599.499L342.163 501.858L439.851 599.499L342.163 697.141L244.475 599.499Z" fill="black"/>
<path d="M509.843 514.326V685.051H613.01V662.877H535.614V514.326H509.843Z" fill="black"/>
<path d="M630.666 514.326V685.051H738.753V662.877H656.437V610.609H732.166V588.518H656.437V536.5H737.752V514.326H630.666Z" fill="black"/>
<path fill-rule="evenodd" clip-rule="evenodd" d="M747.505 685.051H774.861L790.508 639.869H857.243L872.86 685.051H900.216L838.749 514.326H808.973L747.505 685.051ZM849.753 618.195L824.567 545.337H823.236L798.009 618.195H849.753Z" fill="black"/>
<path d="M1051 685.051V514.326H1025.48V639.703H1023.89L936.99 514.326H913.136V685.051H938.906V559.842H940.492L1027.31 685.051H1051Z" fill="black"/>
</g>
</g>
<defs>
<clipPath id="clip0_629_2">
<rect width="1200" height="1200" fill="white"/>
</clipPath>
<clipPath id="clip1_629_2">
<rect width="903" height="243" fill="white" transform="translate(148 478)"/>
</clipPath>
</defs>
</svg>
