<svg width="1200" height="1200" viewBox="0 0 1200 1200" fill="none" xmlns="http://www.w3.org/2000/svg">
<g clip-path="url(#clip0_629_2)">
<path d="M1197 0H3C1.34315 0 0 1.34315 0 3V1197C0 1198.66 1.34315 1200 3 1200H1197C1198.66 1200 1200 1198.66 1200 1197V3C1200 1.34315 1198.66 0 1197 0Z" fill="#EAEAEA"/>
<path fill-rule="evenodd" clip-rule="evenodd" d="M302.893 621.194C302.893 625.177 303.966 628.099 306.109 629.956C308.377 631.921 311.958 632.904 316.851 632.904C318.758 632.904 320.424 632.854 321.846 632.753C323.279 632.653 324.51 632.506 325.534 632.312L328.718 631.708V649.517L326.731 650.065C325.86 650.305 324.914 650.521 323.896 650.71C322.803 650.914 321.7 651.088 320.59 651.227C319.446 651.371 318.331 651.483 317.252 651.561C316.152 651.639 315.163 651.679 314.288 651.679C303.979 651.679 296.161 649.153 290.838 644.102C285.469 639.008 282.783 631.514 282.783 621.625V561.478H264V542.918H282.783V513.21H285.474C290.342 513.21 294.464 514.911 297.834 518.311C299.497 519.988 300.758 521.886 301.614 524.002H301.624C302.468 526.088 302.892 528.348 302.892 530.778V542.918H328.718V545.632C328.718 549.969 327.174 553.695 324.087 556.808H324.077C322.552 558.346 320.833 559.51 318.926 560.296C317.019 561.083 314.974 561.478 312.794 561.478H302.892L302.893 621.194ZM401.587 542.056C402.761 542.056 403.862 542.078 404.893 542.121C405.879 542.161 406.634 542.226 407.151 542.314L409.4 542.694V563.943L406.415 563.608C405.196 563.472 404.104 563.367 403.149 563.296C402.294 563.233 401.558 563.2 400.947 563.2C395.772 563.2 391.35 564.048 387.68 565.744C384.101 567.398 381.186 569.886 378.938 573.207C376.577 576.693 374.805 580.556 373.622 584.79C372.43 589.058 371.834 593.732 371.834 598.805V633.896C371.834 636.32 371.398 638.592 370.529 640.71C369.657 642.834 368.369 644.755 366.67 646.47C363.228 649.942 359.071 651.679 354.202 651.679H351.511V543.564H371.621V557.075C372.107 556.435 372.606 555.816 373.118 555.219C375.675 552.231 378.549 549.767 381.737 547.831C384.877 545.924 388.105 544.486 391.421 543.52C394.766 542.545 398.157 542.056 401.587 542.056ZM505.661 559.378C505.791 557.44 506.212 555.614 506.922 553.903C507.792 551.805 509.089 549.908 510.812 548.212C512.514 546.538 514.391 545.273 516.439 544.421C518.504 543.563 520.703 543.133 523.035 543.133H525.726V648.964C525.726 665.949 520.856 679.126 511.118 688.491C506.251 693.171 500.532 696.681 493.966 699.014C487.46 701.327 480.145 702.483 472.023 702.483H469.332V683.924H472.023C477 683.924 481.5 683.214 485.521 681.795C489.508 680.389 493.06 678.28 496.169 675.474C499.211 672.729 501.5 669.226 503.037 664.967C504.614 660.598 505.403 655.405 505.403 649.394V634.165C501.539 638.899 497.213 642.676 492.428 645.493C485.427 649.615 477.485 651.677 468.608 651.677C463.678 651.677 459.006 651.049 454.595 649.794C450.179 648.538 446.037 646.647 442.174 644.127C438.345 641.628 434.952 638.688 431.997 635.308C429.047 631.936 426.539 628.126 424.474 623.886C422.422 619.673 420.884 615.293 419.861 610.753C418.835 606.194 418.32 601.492 418.32 596.65C418.32 591.932 418.843 587.33 419.887 582.849C420.927 578.394 422.495 574.05 424.59 569.823C426.687 565.594 429.215 561.769 432.172 558.353C435.145 554.92 438.537 551.902 442.346 549.302C446.193 546.676 450.321 544.702 454.724 543.382C459.11 542.066 463.74 541.408 468.608 541.408C473.395 541.408 477.839 541.97 481.932 543.092C486.061 544.224 489.835 545.933 493.248 548.214C496.564 550.432 499.671 553.02 502.564 555.975C503.628 557.061 504.659 558.197 505.661 559.378ZM472.45 633.118C478.487 633.118 484.02 631.504 489.046 628.279C491.573 626.656 493.85 624.731 495.873 622.507C497.899 620.28 499.656 617.766 501.141 614.97C502.631 612.164 503.751 609.232 504.5 606.177C505.244 603.14 505.616 599.965 505.616 596.651C505.616 589.913 504.123 583.734 501.141 578.117C499.656 575.321 497.899 572.806 495.873 570.58C493.85 568.355 491.573 566.43 489.046 564.808C486.527 563.192 483.884 561.978 481.121 561.171C478.383 560.37 475.491 559.969 472.449 559.969C470.098 559.969 467.83 560.162 465.644 560.546C463.476 560.926 461.359 561.504 459.297 562.275C457.256 563.039 455.385 563.98 453.687 565.094C451.98 566.215 450.415 567.526 448.994 569.024L448.952 569.076C445.825 572.23 443.442 576.223 441.802 581.052C440.958 583.539 440.325 586.077 439.907 588.663C439.49 591.234 439.281 593.897 439.281 596.652C439.281 603.128 440.278 608.814 442.273 613.707C444.24 618.534 447.194 622.64 451.132 626.014L451.143 626.026C452.5 627.2 453.976 628.225 455.562 629.098C457.145 629.969 458.882 630.707 460.772 631.309C464.56 632.515 468.455 633.118 472.45 633.118Z" fill="#162F54"/>
<path fill-rule="evenodd" clip-rule="evenodd" d="M673.326 632.485C677.258 627.793 680.079 622.948 681.787 617.957L669.761 613.852C668.58 616.682 667.1 619.41 665.322 622.035C663.364 624.925 661.043 627.686 658.361 630.318C655.618 633.01 652.309 635.025 648.436 636.365C644.595 637.693 640.197 638.358 635.248 638.358C631.462 638.358 627.893 637.878 624.545 636.918C621.194 635.958 618.066 634.514 615.166 632.59C609.389 628.755 604.966 623.668 601.899 617.334C600.374 614.185 599.227 610.899 598.463 607.478C597.697 604.06 597.314 600.521 597.314 596.868C597.314 593.282 597.716 589.81 598.52 586.458C599.321 583.116 600.524 579.898 602.128 576.81C603.734 573.717 605.662 570.944 607.911 568.491C610.162 566.036 612.732 563.904 615.617 562.099C621.402 558.481 627.947 556.671 635.248 556.671C638.444 556.671 641.454 556.995 644.274 557.641C647.104 558.289 649.731 559.263 652.153 560.558C656.979 563.14 660.932 566.425 664.006 570.412L664.014 570.428C664.815 571.505 665.705 572.453 666.681 573.267C667.648 574.075 668.699 574.748 669.83 575.285C670.973 575.828 672.148 576.235 673.352 576.505C674.549 576.773 675.794 576.908 677.084 576.908C677.84 576.908 678.6 576.857 679.357 576.758C679.956 576.679 680.575 576.568 681.21 576.424C680.522 573.945 679.546 571.539 678.282 569.207C676.861 566.586 675.071 564.044 672.915 561.59C670.76 559.135 668.333 556.925 665.638 554.96C662.942 552.995 659.965 551.271 656.713 549.789C653.469 548.311 650.095 547.202 646.596 546.466C643.098 545.729 639.456 545.36 635.676 545.36C630.987 545.36 626.498 545.922 622.215 547.046C617.934 548.169 613.834 549.86 609.924 552.113C606.014 554.368 602.498 557.058 599.381 560.186C596.256 563.319 593.524 566.893 591.186 570.904C586.515 578.921 584.178 587.864 584.178 597.731C584.178 602.67 584.737 607.359 585.854 611.796C586.97 616.229 588.644 620.416 590.874 624.352C595.337 632.229 601.438 638.384 609.172 642.811C616.912 647.241 625.533 649.457 635.036 649.457C639.169 649.457 643.086 649.06 646.78 648.27C650.477 647.478 653.961 646.293 657.227 644.717C660.501 643.136 663.487 641.321 666.178 639.277C668.859 637.241 671.241 634.974 673.326 632.485ZM707.292 493.261H694.156V647.947H707.292V493.261ZM802.162 555.331C801.486 556.962 801.146 558.753 801.146 560.7V604.617C801.146 609.324 800.411 613.66 798.945 617.618C797.475 621.585 795.27 625.163 792.336 628.343C789.395 631.534 786.04 633.929 782.278 635.529C778.52 637.127 774.368 637.927 769.829 637.927C765.15 637.927 761.003 637.192 757.395 635.725C753.78 634.255 750.71 632.052 748.192 629.119L748.146 629.069C745.641 626.134 743.762 622.705 742.51 618.786C741.267 614.895 740.645 610.529 740.645 605.693V560.7C740.645 558.75 740.314 556.957 739.653 555.323C739.006 553.714 738.027 552.246 736.724 550.921L736.67 550.872C734.257 548.437 731.345 547.112 727.934 546.897V609.354C727.934 621.441 731.192 631.156 737.706 638.494C740.93 642.127 744.827 644.858 749.392 646.683L749.44 646.7C754.051 648.536 759.353 649.455 765.344 649.455C772.85 649.455 779.441 647.78 785.112 644.431C790.776 641.088 795.554 636.061 799.444 629.355C799.608 629.019 799.952 628.787 800.349 628.787C800.906 628.787 801.358 629.243 801.358 629.805V647.517H813.854V546.898C812.37 546.998 810.974 547.319 809.669 547.862C808.066 548.528 806.579 549.536 805.213 550.881C803.854 552.217 802.837 553.702 802.162 555.331ZM902.038 545.905C898.009 544.679 893.727 544.065 889.199 544.065C884.804 544.065 880.748 544.59 877.037 545.639C873.338 546.685 869.968 548.254 866.928 550.344C863.856 552.457 860.974 554.941 858.285 557.794C855.604 560.638 853.113 563.851 850.81 567.432C850.638 567.747 850.306 567.961 849.925 567.961C849.368 567.961 848.916 567.505 848.916 566.943V506.02C848.916 504.068 848.576 502.268 847.9 500.62C847.225 498.975 846.203 497.462 844.836 496.083C843.468 494.704 841.967 493.672 840.338 492.991C838.992 492.43 837.543 492.099 835.993 492V646.439H848.703V625.929C848.707 625.589 848.876 625.257 849.183 625.066C849.655 624.771 850.276 624.92 850.568 625.396C855.174 632.929 860.697 638.573 867.131 642.326C873.553 646.072 880.909 647.946 889.199 647.946C893.736 647.946 898.029 647.35 902.072 646.159C906.113 644.97 909.928 643.181 913.509 640.797C917.099 638.406 920.28 635.612 923.045 632.419C925.816 629.221 928.178 625.615 930.13 621.608C932.086 617.592 933.554 613.447 934.533 609.179C935.511 604.919 936 600.526 936 596.005C936 591.563 935.502 587.235 934.507 583.028C933.51 578.813 932.016 574.715 930.027 570.737C928.036 566.756 925.654 563.153 922.882 559.936C920.113 556.724 916.949 553.883 913.389 551.42C909.847 548.968 906.062 547.129 902.038 545.905ZM905.537 631.198C899.964 634.821 893.449 636.635 885.996 636.635C882.425 636.635 879.022 636.162 875.793 635.218C872.559 634.273 869.514 632.858 866.661 630.978C863.814 629.101 861.282 626.906 859.07 624.399C856.863 621.897 854.973 619.078 853.402 615.946C851.836 612.823 850.66 609.579 849.878 606.221C849.094 602.86 848.703 599.381 848.703 595.791C848.703 592.275 849.106 588.857 849.909 585.542C850.711 582.235 851.914 579.035 853.516 575.948C855.12 572.858 857.038 570.069 859.264 567.583C861.498 565.09 864.035 562.906 866.874 561.034C869.729 559.153 872.753 557.739 875.948 556.795C879.141 555.851 882.492 555.378 885.996 555.378C889.711 555.378 893.2 555.84 896.46 556.764C899.722 557.689 902.752 559.079 905.545 560.931C908.329 562.778 910.784 564.949 912.908 567.441C915.03 569.932 916.822 572.744 918.283 575.876C921.194 582.115 922.65 588.899 922.65 596.222C922.65 599.951 922.285 603.513 921.559 606.905C920.831 610.298 919.737 613.524 918.279 616.576C916.818 619.635 915.024 622.384 912.9 624.822C910.772 627.265 908.317 629.391 905.537 631.198Z" fill="#162F54"/>
<path d="M865.145 705.123C865.256 704.998 865.365 704.869 865.471 704.739C867.295 702.496 868.424 699.423 868.424 696.054C868.424 692.686 867.295 689.611 865.471 687.369C865.365 687.239 865.256 687.11 865.145 686.985H927.803C929.696 686.985 931.43 687.953 932.701 689.515C934.046 691.169 934.879 693.48 934.879 696.054C934.879 698.628 934.046 700.939 932.701 702.593C931.43 704.155 929.695 705.123 927.803 705.123H865.145Z" fill="#218CDE"/>
<path d="M795.326 705.123C795.436 704.998 795.545 704.869 795.652 704.739C797.476 702.496 798.605 699.423 798.605 696.054C798.605 692.686 797.476 689.611 795.652 687.369C795.545 687.239 795.436 687.11 795.326 686.985H857.984C859.877 686.985 861.612 687.953 862.882 689.515C864.228 691.169 865.06 693.48 865.06 696.054C865.06 698.628 864.228 700.939 862.882 702.593C861.612 704.155 859.876 705.123 857.984 705.123H795.326Z" fill="#FF911C"/>
<path d="M725.508 705.123C725.618 704.998 725.727 704.869 725.833 704.739C727.658 702.496 728.787 699.423 728.787 696.054C728.787 692.686 727.658 689.611 725.833 687.369C725.727 687.239 725.618 687.11 725.508 686.985H788.165C790.059 686.985 791.793 687.953 793.063 689.515C794.408 691.169 795.241 693.48 795.241 696.054C795.241 698.628 794.408 700.939 793.063 702.593C791.793 704.155 790.058 705.123 788.165 705.123H725.508Z" fill="#A1153D"/>
<path d="M655.688 705.123C655.8 704.998 655.908 704.869 656.014 704.739C657.838 702.496 658.967 699.425 658.967 696.054C658.967 692.684 657.838 689.611 656.014 687.369C655.908 687.239 655.8 687.11 655.688 686.985H718.346C720.24 686.985 721.974 687.953 723.245 689.515C724.59 691.169 725.423 693.48 725.423 696.054C725.423 698.628 724.59 700.939 723.245 702.593C721.974 704.155 720.239 705.123 718.346 705.123H655.688Z" fill="#FC3239"/>
<path d="M588.028 702.593C589.298 704.155 591.034 705.123 592.926 705.123H648.528C650.421 705.123 652.155 704.155 653.425 702.593C654.771 700.939 655.603 698.629 655.603 696.054C655.603 693.479 654.771 691.169 653.425 689.515C652.155 687.953 650.42 686.985 648.528 686.985H592.926C591.033 686.985 589.298 687.953 588.028 689.515C586.683 691.169 585.85 693.48 585.85 696.054C585.85 698.628 586.683 700.939 588.028 702.593Z" fill="#36C781"/>
</g>
<defs>
<clipPath id="clip0_629_2">
<rect width="1200" height="1200" fill="white"/>
</clipPath>
</defs>
</svg>
