<svg width="1200" height="1200" viewBox="0 0 1200 1200" fill="none" xmlns="http://www.w3.org/2000/svg">
<g clip-path="url(#clip0_629_2)">
<path d="M1197 0H3C1.34315 0 0 1.34315 0 3V1197C0 1198.66 1.34315 1200 3 1200H1197C1198.66 1200 1200 1198.66 1200 1197V3C1200 1.34315 1198.66 0 1197 0Z" fill="#EAEAEA"/>
<path d="M180 671.323V657.179L229.569 597.487C234.421 591.455 238.64 587.711 238.64 587.711V587.295C238.64 587.295 235.476 587.711 228.726 587.711H209.32C206.367 587.711 204.679 589.375 204.679 592.287V598.319H180.422V579.392C180.422 569.616 184.641 565.249 194.765 565.249H273.655V579.6L224.085 639.292C219.234 645.116 215.015 649.068 215.015 649.068V649.484C215.015 649.484 218.179 648.86 225.14 648.86H248.764C251.717 648.86 253.405 647.404 253.405 644.284V638.46H277.662V657.179C277.662 667.163 273.444 671.323 263.53 671.323H180Z" fill="black"/>
<path d="M286.727 618.286C286.727 585.631 309.086 562.753 341.359 562.753C372.156 562.753 389.03 585.008 389.03 613.086C389.03 616.206 388.398 622.861 388.398 622.861H314.149C316.258 641.58 330.18 651.356 346.422 651.356C363.718 651.356 376.585 639.5 376.585 639.5L387.765 657.803C387.765 657.803 371.312 673.818 344.523 673.818C308.876 673.818 286.727 648.444 286.727 618.286ZM314.993 604.558H361.609C361.187 591.871 352.328 583.136 341.359 583.136C327.649 583.136 317.946 591.247 314.993 604.558Z" fill="black"/>
<path d="M414.477 633.469V592.287C414.477 589.167 412.79 587.711 409.837 587.711H401.4V565.249H426.923C436.836 565.249 441.055 569.616 441.055 579.184V628.061C441.055 640.956 444.43 649.692 457.719 649.692C477.125 649.692 487.882 632.845 487.882 613.918V565.249H514.671V644.492C514.671 647.404 516.358 649.068 519.311 649.068H527.749V671.323H503.07C493.789 671.323 488.937 666.955 488.937 659.467V656.555C488.937 654.06 489.148 651.772 489.148 651.772H488.726C483.664 662.795 470.164 673.818 451.602 673.818C428.61 673.818 414.477 662.379 414.477 633.469Z" fill="black"/>
<path d="M537.177 654.891L549.833 637.628C549.833 637.628 563.543 653.228 581.895 653.228C590.121 653.228 596.449 649.9 596.449 642.828C596.449 627.853 539.708 628.061 539.708 593.743C539.708 572.528 559.114 562.753 581.473 562.753C596.027 562.753 619.23 567.537 619.23 584.8V595.823H595.605V590.623C595.605 585.631 588.012 583.136 582.105 583.136C572.613 583.136 566.075 586.463 566.075 592.703C566.075 609.342 623.238 606.014 623.238 641.372C623.238 661.339 605.308 673.818 581.895 673.818C552.364 673.818 537.177 654.891 537.177 654.891Z" fill="black"/>
<path d="M695.088 712.92V583.552C695.088 580.64 693.401 578.976 690.448 578.976H681.589V566.705H696.143C705.213 566.705 708.799 570.448 708.799 577.728C708.799 581.888 708.588 584.8 708.588 584.8H709.01C709.01 584.8 717.447 564.209 745.501 564.209C773.977 564.209 791.696 586.671 791.696 619.118C791.696 652.188 771.657 673.818 744.236 673.818C718.291 673.818 709.432 654.06 709.432 654.06H709.01C709.01 654.06 709.432 657.803 709.432 663.211V712.92H695.088ZM709.01 619.326C709.01 640.332 720.611 661.339 742.759 661.339C761.532 661.339 776.931 645.74 776.931 619.118C776.931 593.535 763.22 577.104 743.392 577.104C725.674 577.104 709.01 589.583 709.01 619.326Z" fill="black"/>
<path d="M807.944 642.828C807.944 608.094 854.561 606.846 872.912 606.846H878.818V605.598C878.818 583.76 870.803 576.064 851.397 576.064C846.123 576.064 830.725 577.52 830.725 585.216V591.871H817.015V581.888C817.015 567.329 842.327 564.209 851.608 564.209C885.146 564.209 893.162 581.888 893.162 604.35V654.475C893.162 657.595 894.849 659.051 897.802 659.051H906.661V671.323H892.107C883.037 671.323 879.451 667.371 879.451 658.843C879.451 654.267 879.662 651.148 879.662 651.148H879.24C879.451 651.148 870.592 673.818 844.014 673.818C826.296 673.818 807.944 663.627 807.944 642.828ZM822.71 641.996C822.71 651.772 830.514 661.755 846.334 661.755C866.584 661.755 878.818 640.956 878.818 622.861V618.078H872.701C856.037 618.078 822.71 618.494 822.71 641.996Z" fill="black"/>
<path d="M917.119 694.409C917.119 694.617 923.869 702.313 932.939 702.313C942.22 702.313 948.548 694.825 952.556 685.258L958.884 670.907L921.549 583.76C919.861 580.016 917.963 578.976 914.166 578.976H912.057V566.705H918.596C928.088 566.705 931.041 568.784 934.837 578.144L962.048 643.452C964.157 648.652 965.845 654.683 965.845 654.683H966.267C966.267 654.683 967.743 648.652 969.852 643.452L996.008 578.144C999.594 568.784 1002.76 566.705 1012.46 566.705H1019V578.976H1016.89C1013.09 578.976 1010.98 580.016 1009.51 583.76L963.735 693.161C958.251 706.472 947.493 715 933.361 715C918.596 715 910.369 704.809 910.369 704.809L917.119 694.409Z" fill="black"/>
<path fill-rule="evenodd" clip-rule="evenodd" d="M625.288 539.683L649.73 547.504L643.384 580.865C642.769 584.706 641.64 588.425 641.776 591.046C641.972 594.763 645.697 596.161 648.607 593.083C650.341 591.246 652.139 588.419 652.824 587.423L687.176 534.715C688.918 532.041 689.621 528.595 684.35 528.595L656.689 527.09L666.131 490.095C667.469 484.851 662.892 483.442 659.643 486.868L623.867 534.877C622.662 536.62 621.058 538.683 625.288 539.683Z" fill="#868686"/>
</g>
<defs>
<clipPath id="clip0_629_2">
<rect width="1200" height="1200" fill="white"/>
</clipPath>
</defs>
</svg>
